# xmcd
# Copyright (C) 1995-1998 Ti Kan
#
# Track frame offsets:
#       150
#       12413
#       25711
#       42523
#       57478
#       75136
#       90930
#       106127
#       121976
#       134693
#       151374
#       170059
#       187032
#       201751
#       217264
#       233259
#       248050
#       265213
#       279694
#       293470
#       308043
#
# Disc length: 4752 seconds
#
# Revision: 0
# Processed by: cddbd v1.5.2PL0 Copyright (c) Steve Scherf et al.
# Submitted via: CD-Transfer v1.0
#
DISCID=1f128e15
DTITLE=Chris Wolff - 
DYEAR=2009
DGENRE=
TTITLE0=Titel 1
TTITLE1=Titel 2
TTITLE2=Titel 3
TTITLE3=Titel 4
TTITLE4=Titel 5
TTITLE5=Titel 6
TTITLE6=Titel 7
TTITLE7=Titel 8
TTITLE8=Titel 9
TTITLE9=Titel 10
TTITLE10=Titel 11
TTITLE11=Titel 12
TTITLE12=Titel 13
TTITLE13=Titel 14
TTITLE14=Titel 15
TTITLE15=Titel 16
TTITLE16=Titel 17
TTITLE17=Titel 18
TTITLE18=Titel 19
TTITLE19=Titel 20
TTITLE20=Titel 21
EXTD=
EXTT0=
EXTT1=
EXTT2=
EXTT3=
EXTT4=
EXTT5=
EXTT6=
EXTT7=
EXTT8=
EXTT9=
EXTT10=
EXTT11=
EXTT12=
EXTT13=
EXTT14=
EXTT15=
EXTT16=
EXTT17=
EXTT18=
EXTT19=
EXTT20=
PLAYORDER=
